<?xml version='1.0' encoding='utf-8'?>
<!DOCTYPE svg PUBLIC '-//W3C//DTD SVG 1.1//EN' 'http://www.w3.org/Graphics/SVG/1.1/DTD/svg11.dtd'>
<svg width="820px" height="820px" version="1.1" xmlns="http://www.w3.org/2000/svg" viewBox="-10 -10 532 532" xmlns:xlink="http://www.w3.org/1999/xlink" enable-background="new 0 0 512 512">
  <defs>
    <linearGradient id="border-gradient" x1="0%" y1="0%" x2="100%" y2="100%">
      <stop offset="0%" style="stop-color:#ff00ff;stop-opacity:1" />
      <stop offset="25%" style="stop-color:#00ffff;stop-opacity:1" />
      <stop offset="50%" style="stop-color:#ffff00;stop-opacity:1" />
      <stop offset="75%" style="stop-color:#ff00ff;stop-opacity:1" />
      <stop offset="100%" style="stop-color:#00ffff;stop-opacity:1" />
    </linearGradient>
  </defs>
  <g>
    <g>
      <path d="m365.5,191.5v-106.7c0-7.2-3.8-13.8-9.9-17.5l-89-53.4c-6.5-3.9-14.5-3.9-21,0l-89.1,53.4c-6.2,3.7-9.9,10.3-9.9,17.5v106.7c0,7.2 3.8,13.8 9.9,17.5l89.1,53.4c9.4,5.4 17.2,2.5 21,0l89-53.4c6.1-3.7 9.9-10.3 9.9-17.5z" fill="#000000" stroke="url(#border-gradient)" stroke-width="10"/>
      <path d="m220,303l-89-53.4c-6.5-3.9-14.5-3.9-21,0l-89.1,53.4c-6.2,3.7-9.9,10.3-9.9,17.5v106.7c0,7.2 3.8,13.8 9.9,17.5l89.1,53.4c9.4,5.4 17.2,2.5 21,0l89-53.4c6.2-3.7 9.9-10.3 9.9-17.5v-106.7c0-7.2-3.7-13.8-9.9-17.5z" fill="#000000" stroke="url(#border-gradient)" stroke-width="10"/>
      <path d="m491.1,302.9l-89-53.4c-6.5-3.9-14.5-3.9-21,0l-89.1,53.4c-6.2,3.7-9.9,10.3-9.9,17.5v106.7c0,7.2 3.8,13.8 9.9,17.5l89,53.4c9.4,5.4 17.2,2.5 21,0l89-53.4c6.2-3.7 9.9-10.3 9.9-17.5v-106.7c0.1-7.2-3.7-13.8-9.8-17.5z" fill="#000000" stroke="url(#border-gradient)" stroke-width="10"/>
    </g>
  </g>
</svg>